<svg width="149" height="341" viewBox="0 0 149 341" fill="none" xmlns="http://www.w3.org/2000/svg">
<path d="M74.5 0C115.645 0 149 33.1388 149 74.0176C149 93.4476 141.463 111.128 129.138 124.334C123.542 131.514 106.988 153.997 102.676 173.908C102.62 174.167 102.561 174.423 102.502 174.677V304.26C102.502 322.146 110.502 325.53 135.502 326.98V341H13.502V326.98C38.5018 325.53 46.5019 322.146 46.502 304.26V174.719C46.4395 174.451 46.3774 174.181 46.3184 173.908C41.9978 153.961 25.3907 131.433 19.8252 124.296C7.52091 111.094 -2.92005e-05 93.4286 0 74.0176C0.00025655 33.1388 33.3549 0 74.5 0ZM74.5 28.0361C50.1068 28.0361 29.0002 47.8893 29 74.0176C29 100.146 50.1067 120 74.5 120C98.8932 120 120 100.146 120 74.0176C120 48.2975 99.5474 28.6581 75.6406 28.0508L74.5 28.0361Z" fill="#C4A580"/>
<path d="M43 177C43 174.239 45.2386 172 48 172H102C104.761 172 107 174.239 107 177V199C107 201.761 104.761 204 102 204H48C45.2386 204 43 201.761 43 199V177Z" fill="#7F6E5B"/>
</svg>
