<svg width="1704" height="361" viewBox="0 0 1704 361" fill="none" xmlns="http://www.w3.org/2000/svg">
<path d="M1614.45 318V172C1614.45 138.5 1600.95 123.5 1572.45 123.5C1548.95 123.5 1526.95 135.5 1509.45 149.5V318C1509.45 336.5 1517.45 340 1541.95 341.5V356H1420.45V341.5C1445.45 340 1453.45 336.5 1453.45 318V139.5L1421.95 122V115L1502.95 89H1511.45L1509.45 137C1531.95 111.5 1560.95 89 1600.95 89C1647.45 89 1670.45 115.5 1670.45 169.5V318C1670.45 336.5 1678.45 340 1703.45 341.5V356H1581.45V341.5C1606.45 340 1614.45 336.5 1614.45 318Z" fill="white"/>
<path d="M1110.21 189V300.5C1110.21 330 1123.21 336.5 1171.21 340V356H1009.21V341C1045.21 336.5 1051.21 333.5 1051.21 305.5V55.5C1051.21 27.5 1045.21 24.5 1009.21 20V5H1257.45L1259.21 93.5H1249.09C1231.05 39 1214.77 23 1182.21 23H1110.21V170H1162.54C1183.05 170 1189.57 154 1194.23 123H1208.21V236H1194.23C1189.57 205 1183.05 189 1162.54 189H1110.21Z" fill="white"/>
<path d="M898.434 89C962.434 89 995.934 132.5 995.934 190.5V201H831.434C828.434 277.5 866.934 321 917.434 321C952.434 321 974.434 305.5 992.434 278.5L998.934 282C986.934 328.5 951.434 361 896.934 361C824.934 361 780.934 305.5 780.934 232C780.934 148.5 831.934 89 898.434 89ZM893.934 106C857.934 106 836.934 140 832.934 185H943.934C943.934 139 929.934 106 893.934 106Z" fill="white"/>
<path d="M655.742 361C619.742 361 588.242 351 568.742 336.5L565.742 267.5H581.742C593.742 312 618.242 345.5 656.742 345.5C685.242 345.5 707.242 331 707.242 301.5C707.242 273.5 688.742 262 646.242 246C594.742 227 569.242 207.5 569.242 163.5C569.242 117 603.742 89 656.242 89C687.742 89 713.742 97 734.742 110V140.25V170.5H720.242C711.242 133.5 690.742 104.5 654.742 104.5C627.242 104.5 612.242 120.5 612.242 143.5C612.242 168.5 627.742 180.5 669.742 196C720.742 214.5 751.242 235 751.242 280.5C751.242 331 713.242 361 655.742 361Z" fill="white"/>
<path d="M406.812 327C424.313 327 437.313 319 454.812 305V211L402.312 232.5C378.812 241.5 365.312 254.5 365.312 281.5C365.312 308.5 378.812 327 406.812 327ZM510.812 168V300.5C510.812 320.5 514.813 331 528.812 331C536.813 331 543.813 328.5 550.312 325.5L553.312 334.5C540.312 352 522.313 361 501.312 361C475.313 361 459.812 344 455.812 316.5C438.812 337 411.813 360.5 376.812 360.5C336.812 360.5 311.312 335.5 311.312 297C311.312 254.5 342.312 237 381.312 222.5L454.812 195.5V157.5C454.812 126 443.313 103 413.312 103C386.812 103 375.812 121.5 375.812 146.5C375.812 155.5 377.313 164 379.812 174.5L346.812 179C333.812 175 325.812 165 325.812 150C325.812 110.5 366.812 89 419.312 89C479.312 89 510.812 113 510.812 168Z" fill="white"/>
<path d="M170.5 0C214 0 258.5 22 279.5 29.5L280 106H264C252.5 48.5 221 18.5 171 18.5C98.5 18.5 63.5 89 63.5 174.5C63.5 268 103 342 175.5 342C225.5 342 257.5 313 273.5 241.5H291L284 332.5C254.5 350.5 218.5 361 172.5 361C66.5 361 0 291 0 188.5C0 73.5 73.5 0 170.5 0Z" fill="white"/>
<path d="M1340.5 15C1381.65 15 1415 48.1388 1415 89.0176C1415 108.448 1407.46 126.128 1395.14 139.334C1389.54 146.514 1372.99 168.997 1368.68 188.908C1368.62 189.167 1368.56 189.423 1368.5 189.677V319.26C1368.5 337.146 1376.5 340.53 1401.5 341.98V356H1279.5V341.98C1304.5 340.53 1312.5 337.146 1312.5 319.26V189.719C1312.44 189.451 1312.38 189.181 1312.32 188.908C1308 168.961 1291.39 146.433 1285.83 139.296C1273.52 126.094 1266 108.429 1266 89.0176C1266 48.1388 1299.35 15 1340.5 15ZM1340.5 43.0361C1316.11 43.0361 1295 62.8893 1295 89.0176C1295 115.146 1316.11 135 1340.5 135C1364.89 135 1386 115.146 1386 89.0176C1386 63.2975 1365.55 43.6581 1341.64 43.0508L1340.5 43.0361Z" fill="#C4A580"/>
<path d="M1309 192C1309 189.239 1311.24 187 1314 187H1368C1370.76 187 1373 189.239 1373 192V214C1373 216.761 1370.76 219 1368 219H1314C1311.24 219 1309 216.761 1309 214V192Z" fill="#7F6E5B"/>
</svg>
